<?xml version="1.0" standalone="no"?><!DOCTYPE svg PUBLIC "-//W3C//DTD SVG 1.1//EN" "http://www.w3.org/Graphics/SVG/1.1/DTD/svg11.dtd"><svg t="1589441695282" class="icon" viewBox="0 0 1024 1024" version="1.1" xmlns="http://www.w3.org/2000/svg" p-id="6634" xmlns:xlink="http://www.w3.org/1999/xlink" width="200" height="200"><defs><style type="text/css"></style></defs><path d="M480 832V704h64v128h192a32 32 0 0 1 0 64H288a32 32 0 0 1 0-64h192z" p-id="6635"></path><path d="M192 192a64 64 0 0 0-64 64v384a64 64 0 0 0 64 64h640a64 64 0 0 0 64-64V256a64 64 0 0 0-64-64H192z m0-64h640a128 128 0 0 1 128 128v384a128 128 0 0 1-128 128H192A128 128 0 0 1 64 640V256a128 128 0 0 1 128-128z" p-id="6636"></path><path d="M286.368 458.112a32 32 0 1 1-60.736-20.224C251.232 361.024 305.952 320 384 320c53.024 0 84.96 25.088 151.68 98.464C588.96 477.12 613.024 496 640 496c43.264 0 76.448-16.576 102.4-51.2a32 32 0 0 1 51.2 38.4C755.552 533.92 703.392 560 640 560c-53.024 0-84.96-25.088-151.68-98.464C435.04 402.88 410.976 384 384 384c-49.984 0-80.576 22.976-97.632 74.112z" p-id="6637"></path></svg>