<?xml version="1.0" standalone="no"?><!DOCTYPE svg PUBLIC "-//W3C//DTD SVG 1.1//EN" "http://www.w3.org/Graphics/SVG/1.1/DTD/svg11.dtd"><svg t="1589441592340" class="icon" viewBox="0 0 1024 1024" version="1.1" xmlns="http://www.w3.org/2000/svg" p-id="2871" xmlns:xlink="http://www.w3.org/1999/xlink" width="200" height="200"><defs><style type="text/css"></style></defs><path d="M269.93614 873.022965l-85.994293-273.289306 280.664221-486.048648L830.290536 324.913711 549.487166 810.82321 269.93614 873.022965zM221.651319 603.90814l71.80106 228.204919L526.944973 780.210355 782.701462 337.576301 477.268658 161.274086 221.651319 603.90814z" p-id="2872"></path><path d="M211.589291 586.921623l335.240262 193.556733-17.393668 30.125832-335.240262-193.556733 17.393668-30.125832Z" p-id="2873"></path><path d="M813.592616 353.717625 447.908148 142.628074l68.044028-117.859492 1.669792 0.974045c14.888979-16.141324 36.317978-25.742628 58.860171-25.742628 13.914934 0 27.690719 3.617883 39.657562 10.57535l227.509172 131.356978c32.700095 18.92431 47.032477 57.607827 36.317978 92.395162l1.808941 0.974045-8.905558 15.306428L813.592616 353.717625zM495.358073 129.826335 800.790876 306.267699l42.023101-72.914255c12.245142-21.428999 4.870227-48.841419-16.558772-61.22571l-227.509172-131.356978c-6.818318-3.896182-14.471531-5.983422-22.263895-5.983422-16.002174 0-31.030303 8.48811-38.961815 22.263895l-1.530643 2.643837L495.358073 129.826335z" p-id="2874"></path><path d="M140.527253 978.498166l441.660008 0 0 45.501834-441.660008 0 0-45.501834Z" p-id="2875"></path></svg>